<svg xmlns="http://www.w3.org/2000/svg" xmlns:xlink="http://www.w3.org/1999/xlink" width="256" zoomAndPan="magnify" viewBox="0 0 192 191.999996" height="256" preserveAspectRatio="xMidYMid meet" version="1.0"><defs><clipPath id="ed69f59b9a"><path d="M 19.199219 39 L 151 39 L 151 157 L 19.199219 157 Z M 19.199219 39 " clip-rule="nonzero"/></clipPath><clipPath id="98e1c88f22"><path d="M 19.199219 29 L 151 29 L 151 147 L 19.199219 147 Z M 19.199219 29 " clip-rule="nonzero"/></clipPath><clipPath id="95f6db1db6"><path d="M 19.199219 29 L 151 29 L 151 68 L 19.199219 68 Z M 19.199219 29 " clip-rule="nonzero"/></clipPath><clipPath id="02f8c3afb7"><path d="M 44 24.574219 L 54 24.574219 L 54 50 L 44 50 Z M 44 24.574219 " clip-rule="nonzero"/></clipPath><clipPath id="b159f153a5"><path d="M 81 24.574219 L 92 24.574219 L 92 50 L 81 50 Z M 81 24.574219 " clip-rule="nonzero"/></clipPath><clipPath id="f58e91e87b"><path d="M 119 24.574219 L 130 24.574219 L 130 50 L 119 50 Z M 119 24.574219 " clip-rule="nonzero"/></clipPath><clipPath id="4ef39f0118"><path d="M 107 101 L 172.949219 101 L 172.949219 167.074219 L 107 167.074219 Z M 107 101 " clip-rule="nonzero"/></clipPath></defs><g clip-path="url(#ed69f59b9a)"><path fill="#c9c9c9" d="M 150.425781 51.660156 L 150.425781 143.632812 C 150.425781 150.597656 144.761719 156.242188 137.773438 156.242188 L 31.878906 156.242188 C 24.890625 156.242188 19.230469 150.597656 19.230469 143.632812 L 19.230469 51.660156 C 19.230469 44.695312 24.890625 39.050781 31.878906 39.050781 L 137.773438 39.050781 C 144.761719 39.050781 150.425781 44.695312 150.425781 51.660156 Z M 150.425781 51.660156 " fill-opacity="1" fill-rule="nonzero"/></g><g clip-path="url(#98e1c88f22)"><path fill="#eef0f2" d="M 150.425781 42.304688 L 150.425781 134.277344 C 150.425781 141.242188 144.761719 146.886719 137.773438 146.886719 L 31.878906 146.886719 C 24.890625 146.886719 19.230469 141.242188 19.230469 134.277344 L 19.230469 42.304688 C 19.230469 35.339844 24.890625 29.695312 31.878906 29.695312 L 137.773438 29.695312 C 144.761719 29.695312 150.425781 35.339844 150.425781 42.304688 Z M 150.425781 42.304688 " fill-opacity="1" fill-rule="nonzero"/></g><g clip-path="url(#95f6db1db6)"><path fill="#4ab0d8" d="M 150.425781 42.304688 L 150.425781 67.113281 L 19.230469 67.113281 L 19.230469 42.304688 C 19.230469 35.339844 24.890625 29.695312 31.878906 29.695312 L 137.773438 29.695312 C 144.761719 29.695312 150.425781 35.339844 150.425781 42.304688 Z M 150.425781 42.304688 " fill-opacity="1" fill-rule="nonzero"/></g><path fill="#9ccb5b" d="M 39.003906 77.835938 L 58.507812 77.835938 L 58.507812 97.269531 L 39.003906 97.269531 Z M 39.003906 77.835938 " fill-opacity="1" fill-rule="nonzero"/><path fill="#9ccb5b" d="M 77.007812 77.835938 L 96.507812 77.835938 L 96.507812 97.269531 L 77.007812 97.269531 Z M 77.007812 77.835938 " fill-opacity="1" fill-rule="nonzero"/><path fill="#eb5151" d="M 115.007812 77.835938 L 134.507812 77.835938 L 134.507812 97.269531 L 115.007812 97.269531 Z M 115.007812 77.835938 " fill-opacity="1" fill-rule="nonzero"/><path fill="#eb5151" d="M 39.003906 111.3125 L 58.507812 111.3125 L 58.507812 130.75 L 39.003906 130.75 Z M 39.003906 111.3125 " fill-opacity="1" fill-rule="nonzero"/><path fill="#9ccb5b" d="M 77.007812 111.3125 L 96.507812 111.3125 L 96.507812 130.75 L 77.007812 130.75 Z M 77.007812 111.3125 " fill-opacity="1" fill-rule="nonzero"/><path fill="#338ca8" d="M 55.972656 45.265625 C 55.972656 45.714844 55.929688 46.15625 55.84375 46.597656 C 55.753906 47.035156 55.625 47.464844 55.453125 47.878906 C 55.28125 48.292969 55.070312 48.683594 54.820312 49.058594 C 54.570312 49.429688 54.285156 49.777344 53.96875 50.09375 C 53.648438 50.410156 53.300781 50.691406 52.929688 50.941406 C 52.554688 51.191406 52.160156 51.402344 51.746094 51.574219 C 51.328125 51.746094 50.898438 51.875 50.460938 51.960938 C 50.019531 52.050781 49.574219 52.09375 49.121094 52.09375 C 48.671875 52.09375 48.226562 52.050781 47.785156 51.960938 C 47.34375 51.875 46.917969 51.746094 46.5 51.574219 C 46.085938 51.402344 45.691406 51.191406 45.316406 50.941406 C 44.941406 50.691406 44.597656 50.410156 44.277344 50.09375 C 43.960938 49.777344 43.675781 49.429688 43.425781 49.058594 C 43.175781 48.683594 42.964844 48.292969 42.792969 47.878906 C 42.621094 47.464844 42.492188 47.035156 42.402344 46.597656 C 42.316406 46.15625 42.269531 45.714844 42.269531 45.265625 C 42.269531 44.816406 42.316406 44.371094 42.402344 43.933594 C 42.492188 43.492188 42.621094 43.066406 42.792969 42.652344 C 42.964844 42.238281 43.175781 41.84375 43.425781 41.472656 C 43.675781 41.097656 43.960938 40.753906 44.277344 40.4375 C 44.597656 40.121094 44.941406 39.835938 45.316406 39.585938 C 45.691406 39.339844 46.085938 39.128906 46.5 38.957031 C 46.917969 38.785156 47.34375 38.65625 47.785156 38.566406 C 48.226562 38.480469 48.671875 38.4375 49.121094 38.4375 C 49.574219 38.4375 50.019531 38.480469 50.460938 38.566406 C 50.898438 38.65625 51.328125 38.785156 51.746094 38.957031 C 52.160156 39.128906 52.554688 39.339844 52.929688 39.585938 C 53.300781 39.835938 53.648438 40.121094 53.96875 40.4375 C 54.285156 40.753906 54.570312 41.097656 54.820312 41.472656 C 55.070312 41.84375 55.28125 42.238281 55.453125 42.652344 C 55.625 43.066406 55.753906 43.492188 55.84375 43.933594 C 55.929688 44.371094 55.972656 44.816406 55.972656 45.265625 Z M 55.972656 45.265625 " fill-opacity="1" fill-rule="nonzero"/><g clip-path="url(#02f8c3afb7)"><path fill="#989697" d="M 49.417969 49.566406 L 48.574219 49.566406 C 46.199219 49.566406 44.257812 47.65625 44.257812 45.265625 L 44.257812 28.878906 C 44.257812 26.511719 46.175781 24.574219 48.574219 24.574219 L 49.417969 24.574219 C 51.792969 24.574219 53.734375 26.488281 53.734375 28.878906 L 53.734375 45.265625 C 53.710938 47.632812 51.792969 49.566406 49.417969 49.566406 Z M 49.417969 49.566406 " fill-opacity="1" fill-rule="nonzero"/></g><path fill="#338ca8" d="M 93.515625 45.265625 C 93.515625 45.714844 93.472656 46.15625 93.386719 46.597656 C 93.296875 47.035156 93.167969 47.464844 92.996094 47.878906 C 92.824219 48.292969 92.613281 48.683594 92.363281 49.058594 C 92.113281 49.429688 91.828125 49.777344 91.511719 50.09375 C 91.191406 50.410156 90.847656 50.691406 90.472656 50.941406 C 90.097656 51.191406 89.703125 51.402344 89.289062 51.574219 C 88.871094 51.746094 88.445312 51.875 88.003906 51.960938 C 87.5625 52.050781 87.117188 52.09375 86.667969 52.09375 C 86.214844 52.09375 85.769531 52.050781 85.328125 51.960938 C 84.886719 51.875 84.460938 51.746094 84.042969 51.574219 C 83.628906 51.402344 83.234375 51.191406 82.859375 50.941406 C 82.484375 50.691406 82.140625 50.410156 81.820312 50.09375 C 81.503906 49.777344 81.21875 49.429688 80.96875 49.058594 C 80.71875 48.683594 80.507812 48.292969 80.335938 47.878906 C 80.164062 47.464844 80.035156 47.035156 79.945312 46.597656 C 79.859375 46.15625 79.816406 45.714844 79.816406 45.265625 C 79.816406 44.816406 79.859375 44.371094 79.945312 43.933594 C 80.035156 43.492188 80.164062 43.066406 80.335938 42.652344 C 80.507812 42.238281 80.71875 41.84375 80.96875 41.472656 C 81.21875 41.097656 81.503906 40.753906 81.820312 40.4375 C 82.140625 40.121094 82.484375 39.835938 82.859375 39.585938 C 83.234375 39.339844 83.628906 39.128906 84.042969 38.957031 C 84.460938 38.785156 84.886719 38.65625 85.328125 38.566406 C 85.769531 38.480469 86.214844 38.4375 86.667969 38.4375 C 87.117188 38.4375 87.5625 38.480469 88.003906 38.566406 C 88.445312 38.65625 88.871094 38.785156 89.289062 38.957031 C 89.703125 39.128906 90.097656 39.339844 90.472656 39.585938 C 90.847656 39.835938 91.191406 40.121094 91.511719 40.4375 C 91.828125 40.753906 92.113281 41.097656 92.363281 41.472656 C 92.613281 41.84375 92.824219 42.238281 92.996094 42.652344 C 93.167969 43.066406 93.296875 43.492188 93.386719 43.933594 C 93.472656 44.371094 93.515625 44.816406 93.515625 45.265625 Z M 93.515625 45.265625 " fill-opacity="1" fill-rule="nonzero"/><g clip-path="url(#b159f153a5)"><path fill="#989697" d="M 86.941406 49.566406 L 86.09375 49.566406 C 83.71875 49.566406 81.777344 47.65625 81.777344 45.265625 L 81.777344 28.878906 C 81.777344 26.511719 83.699219 24.574219 86.09375 24.574219 L 86.941406 24.574219 C 89.316406 24.574219 91.257812 26.488281 91.257812 28.878906 L 91.257812 45.265625 C 91.257812 47.632812 89.316406 49.566406 86.941406 49.566406 Z M 86.941406 49.566406 " fill-opacity="1" fill-rule="nonzero"/></g><path fill="#338ca8" d="M 131.675781 45.265625 C 131.675781 45.714844 131.632812 46.15625 131.546875 46.597656 C 131.457031 47.035156 131.328125 47.464844 131.15625 47.878906 C 130.984375 48.292969 130.773438 48.683594 130.523438 49.058594 C 130.273438 49.429688 129.988281 49.777344 129.671875 50.09375 C 129.351562 50.410156 129.007812 50.691406 128.632812 50.941406 C 128.257812 51.191406 127.863281 51.402344 127.449219 51.574219 C 127.03125 51.746094 126.605469 51.875 126.164062 51.960938 C 125.722656 52.050781 125.277344 52.09375 124.828125 52.09375 C 124.375 52.09375 123.929688 52.050781 123.488281 51.960938 C 123.046875 51.875 122.621094 51.746094 122.203125 51.574219 C 121.789062 51.402344 121.394531 51.191406 121.019531 50.941406 C 120.644531 50.691406 120.300781 50.410156 119.980469 50.09375 C 119.664062 49.777344 119.378906 49.429688 119.128906 49.058594 C 118.878906 48.683594 118.667969 48.292969 118.496094 47.878906 C 118.324219 47.464844 118.195312 47.035156 118.105469 46.597656 C 118.019531 46.15625 117.976562 45.714844 117.976562 45.265625 C 117.976562 44.816406 118.019531 44.371094 118.105469 43.933594 C 118.195312 43.492188 118.324219 43.066406 118.496094 42.652344 C 118.667969 42.238281 118.878906 41.84375 119.128906 41.472656 C 119.378906 41.097656 119.664062 40.753906 119.980469 40.4375 C 120.300781 40.121094 120.644531 39.835938 121.019531 39.585938 C 121.394531 39.339844 121.789062 39.128906 122.203125 38.957031 C 122.621094 38.785156 123.046875 38.65625 123.488281 38.566406 C 123.929688 38.480469 124.375 38.4375 124.828125 38.4375 C 125.277344 38.4375 125.722656 38.480469 126.164062 38.566406 C 126.605469 38.65625 127.03125 38.785156 127.449219 38.957031 C 127.863281 39.128906 128.257812 39.339844 128.632812 39.585938 C 129.007812 39.835938 129.351562 40.121094 129.671875 40.4375 C 129.988281 40.753906 130.273438 41.097656 130.523438 41.472656 C 130.773438 41.84375 130.984375 42.238281 131.15625 42.652344 C 131.328125 43.066406 131.457031 43.492188 131.546875 43.933594 C 131.632812 44.371094 131.675781 44.816406 131.675781 45.265625 Z M 131.675781 45.265625 " fill-opacity="1" fill-rule="nonzero"/><g clip-path="url(#f58e91e87b)"><path fill="#989697" d="M 125.125 49.566406 L 124.277344 49.566406 C 121.902344 49.566406 119.960938 47.65625 119.960938 45.265625 L 119.960938 28.878906 C 119.960938 26.511719 121.878906 24.574219 124.277344 24.574219 L 125.125 24.574219 C 127.5 24.574219 129.441406 26.488281 129.441406 28.878906 L 129.441406 45.265625 C 129.417969 47.632812 127.5 49.566406 125.125 49.566406 Z M 125.125 49.566406 " fill-opacity="1" fill-rule="nonzero"/></g><g clip-path="url(#4ef39f0118)"><path fill="#989697" d="M 172.921875 134.484375 C 172.921875 135.550781 172.867188 136.617188 172.761719 137.679688 C 172.660156 138.742188 172.5 139.796875 172.292969 140.84375 C 172.082031 141.890625 171.824219 142.921875 171.511719 143.945312 C 171.203125 144.964844 170.839844 145.96875 170.433594 146.957031 C 170.023438 147.941406 169.5625 148.90625 169.058594 149.847656 C 168.554688 150.789062 168.003906 151.703125 167.410156 152.589844 C 166.816406 153.480469 166.175781 154.335938 165.496094 155.160156 C 164.820312 155.984375 164.101562 156.773438 163.34375 157.53125 C 162.585938 158.285156 161.792969 159 160.964844 159.679688 C 160.136719 160.355469 159.277344 160.988281 158.386719 161.582031 C 157.496094 162.175781 156.578125 162.722656 155.632812 163.226562 C 154.691406 163.730469 153.722656 164.1875 152.734375 164.59375 C 151.742188 165.003906 150.738281 165.363281 149.710938 165.671875 C 148.6875 165.980469 147.648438 166.242188 146.597656 166.449219 C 145.546875 166.65625 144.488281 166.8125 143.425781 166.917969 C 142.359375 167.023438 141.289062 167.074219 140.21875 167.074219 C 139.148438 167.074219 138.078125 167.023438 137.011719 166.917969 C 135.949219 166.8125 134.890625 166.65625 133.839844 166.449219 C 132.789062 166.242188 131.75 165.980469 130.726562 165.671875 C 129.699219 165.363281 128.695312 165.003906 127.703125 164.59375 C 126.714844 164.1875 125.746094 163.730469 124.804688 163.226562 C 123.859375 162.722656 122.941406 162.175781 122.050781 161.582031 C 121.160156 160.988281 120.300781 160.355469 119.472656 159.679688 C 118.644531 159 117.851562 158.285156 117.09375 157.53125 C 116.335938 156.773438 115.617188 155.984375 114.9375 155.160156 C 114.261719 154.335938 113.621094 153.480469 113.027344 152.589844 C 112.433594 151.703125 111.882812 150.789062 111.378906 149.847656 C 110.871094 148.90625 110.414062 147.941406 110.003906 146.957031 C 109.59375 145.96875 109.234375 144.964844 108.925781 143.945312 C 108.613281 142.921875 108.355469 141.890625 108.144531 140.84375 C 107.9375 139.796875 107.777344 138.742188 107.671875 137.679688 C 107.570312 136.617188 107.515625 135.550781 107.515625 134.484375 C 107.515625 133.417969 107.570312 132.351562 107.671875 131.289062 C 107.777344 130.226562 107.9375 129.171875 108.144531 128.125 C 108.355469 127.078125 108.613281 126.042969 108.925781 125.023438 C 109.234375 124 109.59375 122.996094 110.003906 122.011719 C 110.414062 121.023438 110.871094 120.0625 111.378906 119.121094 C 111.882812 118.179688 112.433594 117.265625 113.027344 116.375 C 113.621094 115.488281 114.261719 114.632812 114.9375 113.808594 C 115.617188 112.980469 116.335938 112.191406 117.09375 111.4375 C 117.851562 110.683594 118.644531 109.964844 119.472656 109.289062 C 120.300781 108.613281 121.160156 107.976562 122.050781 107.382812 C 122.941406 106.792969 123.859375 106.242188 124.804688 105.738281 C 125.746094 105.238281 126.714844 104.78125 127.703125 104.371094 C 128.695312 103.964844 129.699219 103.605469 130.726562 103.296875 C 131.75 102.984375 132.789062 102.726562 133.839844 102.519531 C 134.890625 102.308594 135.949219 102.152344 137.011719 102.046875 C 138.078125 101.945312 139.148438 101.890625 140.21875 101.890625 C 141.289062 101.890625 142.359375 101.945312 143.425781 102.046875 C 144.488281 102.152344 145.546875 102.308594 146.597656 102.519531 C 147.648438 102.726562 148.6875 102.984375 149.710938 103.296875 C 150.738281 103.605469 151.742188 103.964844 152.734375 104.371094 C 153.722656 104.78125 154.691406 105.238281 155.632812 105.738281 C 156.578125 106.242188 157.496094 106.792969 158.386719 107.382812 C 159.277344 107.976562 160.136719 108.613281 160.964844 109.289062 C 161.792969 109.964844 162.585938 110.683594 163.34375 111.4375 C 164.101562 112.191406 164.820312 112.980469 165.496094 113.808594 C 166.175781 114.632812 166.816406 115.488281 167.410156 116.375 C 168.003906 117.265625 168.554688 118.179688 169.058594 119.121094 C 169.5625 120.0625 170.023438 121.023438 170.433594 122.011719 C 170.839844 122.996094 171.203125 124 171.511719 125.023438 C 171.824219 126.042969 172.082031 127.078125 172.292969 128.125 C 172.5 129.171875 172.660156 130.226562 172.761719 131.289062 C 172.867188 132.351562 172.921875 133.417969 172.921875 134.484375 Z M 172.921875 134.484375 " fill-opacity="1" fill-rule="nonzero"/></g><path fill="#eef0f2" d="M 167.441406 134.484375 C 167.441406 135.371094 167.394531 136.257812 167.308594 137.144531 C 167.222656 138.027344 167.089844 138.90625 166.917969 139.777344 C 166.742188 140.648438 166.527344 141.507812 166.269531 142.359375 C 166.007812 143.210938 165.710938 144.046875 165.367188 144.867188 C 165.027344 145.6875 164.644531 146.488281 164.226562 147.273438 C 163.804688 148.054688 163.347656 148.816406 162.851562 149.554688 C 162.355469 150.296875 161.828125 151.007812 161.261719 151.695312 C 160.695312 152.382812 160.097656 153.039062 159.46875 153.667969 C 158.835938 154.296875 158.175781 154.890625 157.488281 155.457031 C 156.796875 156.019531 156.082031 156.546875 155.34375 157.042969 C 154.601562 157.535156 153.835938 157.992188 153.050781 158.410156 C 152.265625 158.828125 151.460938 159.207031 150.636719 159.546875 C 149.8125 159.886719 148.972656 160.1875 148.121094 160.445312 C 147.265625 160.703125 146.402344 160.917969 145.527344 161.09375 C 144.65625 161.265625 143.773438 161.394531 142.886719 161.484375 C 142 161.570312 141.109375 161.613281 140.21875 161.613281 C 139.328125 161.613281 138.4375 161.570312 137.550781 161.484375 C 136.664062 161.394531 135.78125 161.265625 134.90625 161.09375 C 134.035156 160.917969 133.167969 160.703125 132.316406 160.445312 C 131.464844 160.1875 130.625 159.886719 129.800781 159.546875 C 128.976562 159.207031 128.171875 158.828125 127.386719 158.410156 C 126.601562 157.992188 125.835938 157.535156 125.09375 157.042969 C 124.355469 156.546875 123.636719 156.019531 122.949219 155.457031 C 122.261719 154.890625 121.601562 154.296875 120.96875 153.667969 C 120.339844 153.039062 119.742188 152.382812 119.175781 151.695312 C 118.609375 151.007812 118.078125 150.296875 117.585938 149.554688 C 117.089844 148.816406 116.632812 148.054688 116.210938 147.273438 C 115.792969 146.488281 115.410156 145.6875 115.070312 144.867188 C 114.726562 144.046875 114.429688 143.210938 114.167969 142.359375 C 113.910156 141.507812 113.695312 140.648438 113.519531 139.777344 C 113.347656 138.90625 113.214844 138.027344 113.128906 137.144531 C 113.039062 136.257812 112.996094 135.371094 112.996094 134.484375 C 112.996094 133.59375 113.039062 132.707031 113.128906 131.824219 C 113.214844 130.941406 113.347656 130.0625 113.519531 129.191406 C 113.695312 128.320312 113.910156 127.457031 114.167969 126.609375 C 114.429688 125.757812 114.726562 124.921875 115.070312 124.101562 C 115.410156 123.28125 115.792969 122.476562 116.210938 121.695312 C 116.632812 120.910156 117.089844 120.148438 117.585938 119.410156 C 118.078125 118.671875 118.609375 117.960938 119.175781 117.273438 C 119.742188 116.585938 120.339844 115.929688 120.96875 115.300781 C 121.601562 114.671875 122.261719 114.074219 122.949219 113.511719 C 123.636719 112.949219 124.355469 112.417969 125.09375 111.925781 C 125.835938 111.433594 126.601562 110.976562 127.386719 110.558594 C 128.171875 110.136719 128.976562 109.757812 129.800781 109.417969 C 130.625 109.078125 131.464844 108.78125 132.316406 108.523438 C 133.167969 108.265625 134.035156 108.046875 134.90625 107.875 C 135.78125 107.703125 136.664062 107.570312 137.550781 107.484375 C 138.4375 107.398438 139.328125 107.355469 140.21875 107.355469 C 141.109375 107.355469 142 107.398438 142.886719 107.484375 C 143.773438 107.570312 144.65625 107.703125 145.527344 107.875 C 146.402344 108.046875 147.265625 108.265625 148.121094 108.523438 C 148.972656 108.78125 149.8125 109.078125 150.636719 109.417969 C 151.460938 109.757812 152.265625 110.136719 153.050781 110.558594 C 153.835938 110.976562 154.601562 111.433594 155.34375 111.925781 C 156.082031 112.417969 156.796875 112.949219 157.488281 113.511719 C 158.175781 114.074219 158.835938 114.671875 159.46875 115.300781 C 160.097656 115.929688 160.695312 116.585938 161.261719 117.273438 C 161.828125 117.960938 162.355469 118.671875 162.851562 119.410156 C 163.347656 120.148438 163.804688 120.910156 164.226562 121.695312 C 164.644531 122.476562 165.027344 123.28125 165.367188 124.101562 C 165.710938 124.921875 166.007812 125.757812 166.269531 126.609375 C 166.527344 127.457031 166.742188 128.320312 166.917969 129.191406 C 167.089844 130.0625 167.222656 130.941406 167.308594 131.824219 C 167.394531 132.707031 167.441406 133.59375 167.441406 134.484375 Z M 167.441406 134.484375 " fill-opacity="1" fill-rule="nonzero"/><path fill="#399ab7" d="M 140.652344 140.195312 C 140.652344 140.195312 140.585938 140.308594 140.445312 140.515625 C 140.308594 140.332031 140.242188 140.195312 140.242188 140.195312 L 140.445312 139.742188 Z M 140.652344 140.195312 " fill-opacity="1" fill-rule="nonzero"/><path fill="#399ab7" d="M 140.652344 140.195312 C 140.652344 140.195312 140.585938 140.308594 140.445312 140.515625 C 140.308594 140.332031 140.242188 140.195312 140.242188 140.195312 L 140.445312 139.742188 Z M 140.652344 140.195312 " fill-opacity="1" fill-rule="nonzero"/><path fill="#f4bc95" d="M 134.875 130.183594 L 146.40625 130.183594 L 146.40625 142.882812 L 134.875 142.882812 Z M 134.875 130.183594 " fill-opacity="1" fill-rule="nonzero"/><path fill="#fec8a2" d="M 153.828125 121.761719 C 153.828125 123.148438 152.800781 124.289062 151.476562 124.46875 C 150.769531 129.136719 148.644531 132.046875 146.40625 133.847656 C 142.890625 136.691406 137.820312 136.691406 134.328125 133.847656 C 133.34375 133.050781 132.386719 132.046875 131.5625 130.773438 C 130.488281 129.113281 129.621094 126.996094 129.257812 124.289062 C 128.730469 124.082031 128.296875 123.742188 127.976562 123.308594 C 127.660156 122.851562 127.476562 122.328125 127.476562 121.738281 C 127.476562 120.601562 128.160156 119.644531 129.144531 119.210938 C 129.554688 116.503906 130.945312 114.113281 132.933594 112.40625 C 134.921875 110.699219 137.523438 109.652344 140.378906 109.652344 C 146.042969 109.652344 150.679688 113.773438 151.589844 119.097656 C 152.230469 119.210938 152.800781 119.554688 153.191406 120.03125 C 153.601562 120.488281 153.828125 121.101562 153.828125 121.761719 Z M 153.828125 121.761719 " fill-opacity="1" fill-rule="nonzero"/><path fill="#62bee7" d="M 161.070312 145.910156 L 161.070312 151.917969 C 158.832031 154.558594 156.113281 156.789062 153.03125 158.425781 C 149.214844 160.453125 144.855469 161.613281 140.21875 161.613281 C 135.925781 161.613281 131.882812 160.636719 128.253906 158.859375 C 125.214844 157.378906 122.496094 155.355469 120.214844 152.898438 L 120.214844 145.910156 C 121.058594 141.996094 123.9375 138.738281 127.886719 137.488281 C 128.527344 137.285156 129.1875 137.101562 129.875 136.917969 C 131.378906 136.53125 133.046875 136.191406 134.785156 135.964844 L 134.851562 136.007812 L 140.628906 139.808594 L 146.382812 136.007812 L 146.453125 135.964844 C 147.890625 136.144531 149.261719 136.394531 150.5625 136.714844 C 151.546875 136.941406 152.480469 137.214844 153.351562 137.488281 C 157.347656 138.738281 160.222656 141.996094 161.070312 145.910156 Z M 161.070312 145.910156 " fill-opacity="1" fill-rule="nonzero"/><path fill="#ffffff" d="M 50.925781 121.398438 L 55.472656 116.867188 C 56.085938 116.253906 56.085938 115.273438 55.472656 114.683594 C 54.855469 114.066406 53.871094 114.066406 53.277344 114.683594 L 48.734375 119.210938 L 44.191406 114.683594 C 43.574219 114.066406 42.589844 114.066406 41.996094 114.683594 C 41.378906 115.296875 41.378906 116.277344 41.996094 116.867188 L 46.542969 121.398438 L 41.996094 125.925781 C 41.378906 126.539062 41.378906 127.519531 41.996094 128.109375 C 42.292969 128.40625 42.707031 128.566406 43.09375 128.566406 C 43.480469 128.566406 43.894531 128.40625 44.191406 128.109375 L 48.734375 123.582031 L 53.277344 128.109375 C 53.574219 128.40625 53.988281 128.566406 54.375 128.566406 C 54.761719 128.566406 55.175781 128.40625 55.472656 128.109375 C 56.085938 127.496094 56.085938 126.519531 55.472656 125.925781 Z M 50.925781 121.398438 " fill-opacity="1" fill-rule="nonzero"/><path fill="#ffffff" d="M 126.972656 87.554688 L 131.519531 83.023438 C 132.132812 82.410156 132.132812 81.429688 131.519531 80.839844 C 130.902344 80.222656 129.917969 80.222656 129.324219 80.839844 L 124.757812 85.367188 L 120.214844 80.839844 C 119.597656 80.222656 118.613281 80.222656 118.019531 80.839844 C 117.40625 81.453125 117.40625 82.433594 118.019531 83.023438 L 122.566406 87.554688 L 118.019531 92.082031 C 117.40625 92.695312 117.40625 93.675781 118.019531 94.265625 C 118.316406 94.5625 118.730469 94.722656 119.117188 94.722656 C 119.503906 94.722656 119.917969 94.5625 120.214844 94.265625 L 124.757812 89.738281 L 129.300781 94.265625 C 129.597656 94.5625 130.011719 94.722656 130.398438 94.722656 C 130.785156 94.722656 131.199219 94.5625 131.496094 94.265625 C 132.113281 93.652344 132.113281 92.671875 131.496094 92.082031 Z M 126.972656 87.554688 " fill-opacity="1" fill-rule="nonzero"/><path fill="#ffffff" d="M 84.40625 127.792969 C 84.015625 127.792969 83.652344 127.65625 83.332031 127.40625 L 78.308594 123.125 C 77.667969 122.582031 77.601562 121.625 78.148438 120.988281 C 78.695312 120.351562 79.65625 120.28125 80.292969 120.804688 L 84.335938 124.242188 L 93.152344 115.457031 C 93.746094 114.863281 94.726562 114.863281 95.320312 115.457031 C 95.914062 116.046875 95.914062 117.027344 95.320312 117.617188 L 85.570312 127.3125 C 85.25 127.632812 84.839844 127.792969 84.40625 127.792969 Z M 84.40625 127.792969 " fill-opacity="1" fill-rule="nonzero"/><path fill="#ffffff" d="M 84.769531 93.949219 C 84.382812 93.949219 84.015625 93.8125 83.699219 93.5625 L 78.671875 89.28125 C 78.035156 88.734375 77.964844 87.78125 78.511719 87.144531 C 79.0625 86.503906 80.019531 86.4375 80.660156 86.960938 L 84.703125 90.398438 L 93.515625 81.613281 C 94.109375 81.019531 95.09375 81.019531 95.6875 81.613281 C 96.28125 82.203125 96.28125 83.183594 95.6875 83.773438 L 85.933594 93.492188 C 85.617188 93.789062 85.183594 93.949219 84.769531 93.949219 Z M 84.769531 93.949219 " fill-opacity="1" fill-rule="nonzero"/><path fill="#ffffff" d="M 46.382812 94.699219 C 45.992188 94.699219 45.628906 94.5625 45.308594 94.3125 L 40.285156 90.035156 C 39.644531 89.488281 39.578125 88.53125 40.125 87.894531 C 40.671875 87.257812 41.632812 87.1875 42.269531 87.710938 L 46.3125 91.148438 L 55.128906 82.363281 C 55.722656 81.773438 56.703125 81.773438 57.296875 82.363281 C 57.890625 82.957031 57.890625 83.933594 57.296875 84.527344 L 47.546875 94.246094 C 47.226562 94.539062 46.792969 94.699219 46.382812 94.699219 Z M 46.382812 94.699219 " fill-opacity="1" fill-rule="nonzero"/></svg>