<svg xmlns="http://www.w3.org/2000/svg" xmlns:xlink="http://www.w3.org/1999/xlink" width="256" zoomAndPan="magnify" viewBox="0 0 192 191.999996" height="256" preserveAspectRatio="xMidYMid meet" version="1.0"><defs><clipPath id="2cead769d8"><path d="M 62.964844 24.71875 L 128.957031 24.71875 L 128.957031 90.742188 L 62.964844 90.742188 Z M 62.964844 24.71875 " clip-rule="nonzero"/></clipPath><clipPath id="f40f701dc8"><path d="M 75.746094 27.351562 L 128.957031 27.351562 L 128.957031 90.742188 L 75.746094 90.742188 Z M 75.746094 27.351562 " clip-rule="nonzero"/></clipPath></defs><path fill="#4d4d4d" d="M 101.457031 160.492188 L 98.640625 165.148438 C 97.558594 166.933594 94.964844 166.933594 93.886719 165.148438 L 91.070312 160.492188 L 91.070312 86.484375 L 101.457031 86.484375 L 101.457031 160.492188 " fill-opacity="1" fill-rule="nonzero"/><path fill="#808080" d="M 93.886719 165.148438 C 94.300781 165.832031 94.9375 166.25 95.628906 166.410156 L 95.628906 86.484375 L 92.765625 86.484375 L 92.765625 163.292969 L 93.886719 165.148438 " fill-opacity="1" fill-rule="nonzero"/><path fill="#1a1a1a" d="M 98.851562 86.484375 L 98.851562 164.796875 L 101.457031 160.492188 L 101.457031 86.484375 L 98.851562 86.484375 " fill-opacity="1" fill-rule="nonzero"/><g clip-path="url(#2cead769d8)"><path fill="#f12200" d="M 128.957031 57.664062 C 128.957031 75.859375 114.183594 90.609375 95.960938 90.609375 C 77.738281 90.609375 62.964844 75.859375 62.964844 57.664062 C 62.964844 39.46875 77.738281 24.71875 95.960938 24.71875 C 114.183594 24.71875 128.957031 39.46875 128.957031 57.664062 " fill-opacity="1" fill-rule="nonzero"/></g><g clip-path="url(#f40f701dc8)"><path fill="#9e1600" d="M 109.113281 27.457031 C 116.9375 33.480469 122 42.90625 122 53.535156 C 122 71.730469 107.226562 86.484375 89.003906 86.484375 C 84.328125 86.484375 79.882812 85.496094 75.855469 83.746094 C 81.421875 88.035156 88.382812 90.609375 95.960938 90.609375 C 114.183594 90.609375 128.957031 75.859375 128.957031 57.664062 C 128.957031 44.140625 120.789062 32.53125 109.113281 27.457031 " fill-opacity="1" fill-rule="nonzero"/></g><path fill="#ffd6cf" d="M 97.964844 46.449219 C 97.964844 53.398438 92.324219 59.035156 85.359375 59.035156 C 78.398438 59.035156 72.753906 53.398438 72.753906 46.449219 C 72.753906 39.496094 78.398438 33.859375 85.359375 33.859375 C 92.324219 33.859375 97.964844 39.496094 97.964844 46.449219 " fill-opacity="1" fill-rule="nonzero"/></svg>